REM DIRINDEX 1\2\6,1\2\7,1\2\8,1\2\9,1\3\10,1\3\11,1\4\12,1\4\13,1\4\14,1\5\15,1\5\16,1\5\17
REM DIRNAME folder01,folder02,folder03,folder04,folder05,folder06,folder07,folder08,folder09,folder10,folder11,folder12,folder13,folder14,folder15,folder16,folder17
TITLE ""
FILE "1900_2_sec04_0363_0379.mp3" MP3
  TRACK 01 AUDIO
    TITLE "0:"
    INDEX 01 00:00:00
  TRACK 02 AUDIO
    TITLE "13:cjc020_2825"
    INDEX 01 00:00:17
  TRACK 03 AUDIO
    TITLE "0:"
    INDEX 01 00:01:44
  TRACK 04 AUDIO
    TITLE "14:cjc020_2826"
    INDEX 01 00:01:48
  TRACK 05 AUDIO
    TITLE "0:"
    INDEX 01 00:04:25
  TRACK 06 AUDIO
    TITLE "13:cjc020_2827"
    INDEX 01 00:05:07
  TRACK 07 AUDIO
    TITLE "0:"
    INDEX 01 00:06:49
  TRACK 08 AUDIO
    TITLE "14:cjc020_2828"
    INDEX 01 00:06:51
  TRACK 09 AUDIO
    TITLE "0:"
    INDEX 01 00:08:68
  TRACK 10 AUDIO
    TITLE "13:cjc020_2829"
    INDEX 01 00:09:49
  TRACK 11 AUDIO
    TITLE "0:"
    INDEX 01 00:10:72
  TRACK 12 AUDIO
    TITLE "14:cjc020_2830"
    INDEX 01 00:10:74
  TRACK 13 AUDIO
    TITLE "0:"
    INDEX 01 00:15:28
  TRACK 14 AUDIO
    TITLE "13:cjc020_2831"
    INDEX 01 00:16:10
  TRACK 15 AUDIO
    TITLE "0:"
    INDEX 01 00:17:43
  TRACK 16 AUDIO
    TITLE "14:cjc020_2832"
    INDEX 01 00:17:49
  TRACK 17 AUDIO
    TITLE "0:"
    INDEX 01 00:20:37
  TRACK 18 AUDIO
    TITLE "13:cjc020_2833"
    INDEX 01 00:21:17
  TRACK 19 AUDIO
    TITLE "0:"
    INDEX 01 00:22:30
  TRACK 20 AUDIO
    TITLE "14:cjc020_2834"
    INDEX 01 00:22:34
  TRACK 21 AUDIO
    TITLE "0:"
    INDEX 01 00:26:11
  TRACK 22 AUDIO
    TITLE "13:cjc020_2835"
    INDEX 01 00:26:67
  TRACK 23 AUDIO
    TITLE "0:"
    INDEX 01 00:28:35
  TRACK 24 AUDIO
    TITLE "14:cjc020_2836"
    INDEX 01 00:28:37
  TRACK 25 AUDIO
    TITLE "0:"
    INDEX 01 00:29:23
  TRACK 26 AUDIO
    TITLE "13:cjc020_2837"
    INDEX 01 00:30:01
  TRACK 27 AUDIO
    TITLE "0:"
    INDEX 01 00:31:10
  TRACK 28 AUDIO
    TITLE "14:cjc020_2838"
    INDEX 01 00:31:12
  TRACK 29 AUDIO
    TITLE "0:"
    INDEX 01 00:33:26
  TRACK 30 AUDIO
    TITLE "13:cjc020_2839"
    INDEX 01 00:34:02
  TRACK 31 AUDIO
    TITLE "0:"
    INDEX 01 00:35:08
  TRACK 32 AUDIO
    TITLE "14:cjc020_2840"
    INDEX 01 00:35:14
  TRACK 33 AUDIO
    TITLE "0:"
    INDEX 01 00:36:29
  TRACK 34 AUDIO
    TITLE "13:cjc020_2841"
    INDEX 01 00:37:12
  TRACK 35 AUDIO
    TITLE "0:"
    INDEX 01 00:38:16
  TRACK 36 AUDIO
    TITLE "14:cjc020_2842"
    INDEX 01 00:38:18
  TRACK 37 AUDIO
    TITLE "0:"
    INDEX 01 00:42:02
  TRACK 38 AUDIO
    TITLE "13:cjc020_2843"
    INDEX 01 00:42:55
  TRACK 39 AUDIO
    TITLE "0:"
    INDEX 01 00:43:68
  TRACK 40 AUDIO
    TITLE "14:cjc020_2844"
    INDEX 01 00:43:72
  TRACK 41 AUDIO
    TITLE "0:"
    INDEX 01 00:44:73
  TRACK 42 AUDIO
    TITLE "13:cjc020_2845"
    INDEX 01 00:45:53
  TRACK 43 AUDIO
    TITLE "0:"
    INDEX 01 00:47:05
  TRACK 44 AUDIO
    TITLE "14:cjc020_2846"
    INDEX 01 00:47:09
  TRACK 45 AUDIO
    TITLE "0:"
    INDEX 01 00:49:72
  TRACK 46 AUDIO
    TITLE "13:cjc020_2847"
    INDEX 01 00:50:52
  TRACK 47 AUDIO
    TITLE "0:"
    INDEX 01 00:51:65
  TRACK 48 AUDIO
    TITLE "14:cjc020_2848"
    INDEX 01 00:51:69
  TRACK 49 AUDIO
    TITLE "0:"
    INDEX 01 00:54:29
  TRACK 50 AUDIO
    TITLE "13:cjc020_2849"
    INDEX 01 00:55:06
  TRACK 51 AUDIO
    TITLE "0:"
    INDEX 01 00:56:31
  TRACK 52 AUDIO
    TITLE "14:cjc020_2850"
    INDEX 01 00:56:33
  TRACK 53 AUDIO
    TITLE "0:"
    INDEX 01 01:00:25
  TRACK 54 AUDIO
    TITLE "13:cjc020_2851"
    INDEX 01 01:01:05
  TRACK 55 AUDIO
    TITLE "0:"
    INDEX 01 01:02:24
  TRACK 56 AUDIO
    TITLE "14:cjc020_2852"
    INDEX 01 01:02:26
  TRACK 57 AUDIO
    TITLE "0:"
    INDEX 01 01:04:58
  TRACK 58 AUDIO
    TITLE "13:cjc020_2853"
    INDEX 01 01:05:38
  TRACK 59 AUDIO
    TITLE "0:"
    INDEX 01 01:06:49
  TRACK 60 AUDIO
    TITLE "14:cjc020_2854"
    INDEX 01 01:06:51
  TRACK 61 AUDIO
    TITLE "0:"
    INDEX 01 01:10:20
  TRACK 62 AUDIO
    TITLE "13:cjc020_2855"
    INDEX 01 01:11:00
  TRACK 63 AUDIO
    TITLE "0:"
    INDEX 01 01:12:28
  TRACK 64 AUDIO
    TITLE "14:cjc020_2856"
    INDEX 01 01:12:32
  TRACK 65 AUDIO
    TITLE "0:"
    INDEX 01 01:15:54
  TRACK 66 AUDIO
    TITLE "12:cjc020_2857"
    INDEX 01 01:17:26
  TRACK 67 AUDIO
    TITLE "0:"
    INDEX 01 01:18:72
  TRACK 68 AUDIO
    TITLE "13:cjc020_2858"
    INDEX 01 01:19:72
  TRACK 69 AUDIO
    TITLE "0:"
    INDEX 01 01:21:16
  TRACK 70 AUDIO
    TITLE "14:cjc020_2859"
    INDEX 01 01:21:23
  TRACK 71 AUDIO
    TITLE "0:"
    INDEX 01 01:26:05
